# AST/ASF file generated using VICON BodyLanguage
# -----------------------------------------------
:version 1.10
:name VICON
:units
  mass 1.0
  length 0.45
  angle deg
:documentation
   .ast/.asf automatically generated from VICON data using
   VICON BodyBuilder and BodyLanguage model FoxedUp or BRILLIANT.MOD
:root
   order TX TY TZ RX RY RZ
   axis XYZ
   position 0 0 0  
   orientation 0 0 0 
:bonedata
  begin
     id 1 
     name lhipjoint
     direction 0.653368 -0.678499 0.335782 
     length 2.51848 
     axis 0 0 0  XYZ
  end
  begin
     id 2 
     name lfemur
     direction 0.34202 -0.939693 0  
     length 6.57749  
     axis 0 0 20  XYZ
    dof rx ry rz
    limits (-160.0 20.0)
           (-70.0 70.0)
           (-60.0 70.0)
  end
  begin
     id 3 
     name ltibia
     direction 0.34202 -0.939693 0   
     length 7.94618   
     axis 0 0 20   XYZ
    dof rx
    limits (-10.0 170.0)
  end
  begin
     id 4 
     name lfoot
     direction 0.0811271 -0.222895 0.971461   
     length 2.31339   
     axis -90 7.62852e-016 20   XYZ
    dof rx rz
    limits (-45.0 90.0)
           (-70.0 20.0)
  end
  begin
     id 5 
     name ltoes
     direction 1.53568e-011 -4.21885e-011 1   
     length 1.15935   
     axis -90 7.62852e-016 20   XYZ
    dof rx
    limits (-90.0 20.0)
  end
  begin
     id 6 
     name rhipjoint
     direction -0.640058 -0.688614 0.340788   
     length 2.48149  
     axis 0 0 0  XYZ 
  end
  begin
     id 7 
     name rfemur
     direction -0.34202 -0.939693 0   
     length 6.57875   
     axis 0 0 -20   XYZ
    dof rx ry rz
    limits (-160.0 20.0)
           (-70.0 70.0)
           (-70.0 60.0)
  end
  begin
     id 8 
     name rtibia
     direction -0.34202 -0.939693 0   
     length 7.977   
     axis 0 0 -20   XYZ
    dof rx
    limits (-10.0 170.0)
 end
 begin
     id 9 
     name rfoot
     direction -0.0979793 -0.269196 0.958089   
     length 2.19857  
     axis -90 -7.62852e-016 -20   XYZ
    dof rx rz
    limits (-45.0 90.0)
           (-20.0 70.0)
  end
  begin
     id 10 
     name rtoes
     direction -1.53556e-011 -4.21868e-011 1   
     length 1.09838   
     axis -90 -7.62852e-016 -20   XYZ
    dof rx
    limits (-90.0 20.0)
  end
  begin
     id 11 
     name lowerback
     direction 0.0149039 0.998517 -0.0523597   
     length 2.10809   
     axis 0 0 0   XYZ
    dof rx ry rz
    limits (-20.0 45.0)
           (-30.0 30.0)
           (-30.0 30.0)
  end
  begin
     id 12 
     name upperback
     direction -0.00882659 0.999418 -0.0329624   
     length 2.1102   
     axis 0 0 0   XYZ
    dof rx ry rz
    limits (-20.0 45.0)
           (-30.0 30.0)
           (-30.0 30.0)
  end
  begin
     id 13 
     name thorax
     direction -0.0165585 0.999826 -0.0085833   
     length 2.11039   
     axis 0 0 0   XYZ
    dof rx ry rz
    limits (-20.0 45.0)
           (-30.0 30.0)
           (-30.0 30.0)
  end
  begin
     id 14 
     name lowerneck
     direction -0.0130877 0.999911 0.00260353   
     length 1.73253   
     axis 0 0 0   XYZ
    dof rx ry rz
    limits (-20.0 45.0)
           (-30.0 30.0)
           (-30.0 30.0)
  end
  begin
     id 15 
     name upperneck
     direction -0.0348454 0.928205 -0.370435   
     length 1.66692   
     axis 0 0 0   XYZ
    dof rx ry rz
    limits (-20.0 45.0)
           (-30.0 30.0)
           (-30.0 30.0)
  end
  begin
     id 16
     name head
     direction -0.00807754 0.992494 -0.122026  
     length 1.72765  
     axis 0 0 0   XYZ
    dof rx ry rz
    limits (-20.0 45.0)
           (-30.0 30.0)
           (-30.0 30.0)
  end
  begin
     id 17 
     name lclavicle
     direction 0.987582 0.144023 0.0627671  
     length 3.49235  
     axis 0 0 0   XYZ
    dof ry rz
    limits (-20.0 10.0)
           (0.0 20.0)
  end
  begin
     id 18 
     name lhumerus
     direction 1 -4.48958e-011 -1.45183e-018   
     length 5.41917   
     axis 180 -30 -90   XYZ
    dof rx ry rz
    limits (-60.0 90.0)
           (-90.0 90.0)
           (-90.0 90.0)
  end
  begin
     id 19
     name lradius
     direction 1 -4.48999e-011 5.75106e-027   
     length 2.44373   
     axis 180 -30 -90   XYZ
    dof rx
    limits (-10.0 170.0)
  end
  begin
     id 20
     name lwrist
     direction 1 -4.48987e-011 1.53461e-026   
     length 1.22186   
     axis -1.09697e-014 90 90   XYZ
    dof ry
    limits (-180.0 0.0)
 end
  begin
     id 21 
     name lhand
     direction 1 -4.48881e-011 3.06923e-026   
     length 0.727502   
     axis -1.95843e-014 90 90   XYZ
    dof rx rz
    limits (-90.0 90.0)
           (-45.0 45.0)
  end
  begin
     id 22 
     name lfingers
     direction 1 -4.48907e-011 6.13845e-026   
     length 0.586531   
     axis -3.91686e-014 90 90   XYZ
    dof rx
    limits (0.0 90.0)
  end
  begin
     id 23
     name lthumb
     direction 0.707107 -6.3487e-011 0.707107   
     length 0.842145   
     axis -90 45 2.85299e-015   XYZ
    dof rx rz
    limits (-45.0 45.0)
           (-45.0 45.0)
  end
  begin
     id 24 
     name rclavicle
     direction -0.980998 0.169556 0.0943023   
     length 3.29272  
     axis 0 0 0   XYZ 
    dof ry rz
    limits (-10.0 20.0)
           (-20.0 0.0)
  end
  begin
     id 25 
     name rhumerus
     direction -1 -1.83355e-005 2.45537e-005  
     length 5.58976   
     axis 180 30 90   XYZ
    dof rx ry rz
    limits (-90.0 60.0)
           (-90.0 90.0)
           (-90.0 90.0)
  end
  begin
     id 26 
     name rradius
     direction -1 -4.48967e-011 5.97228e-027   
     length 2.4806   
     axis 180 30 90   XYZ
    dof rx
    limits (-10.0 170.0)
  end
  begin
     id 27 
     name rwrist
     direction -1 -4.48963e-011 1.53461e-026   
     length 1.2403   
     axis -1.09697e-014 -90 -90   XYZ
    dof ry
    limits (-180.0 0.0)
  end
  begin
     id 28
     name rhand
     direction -1 -4.48881e-011 3.06923e-026   
     length 0.816009   
     axis -1.95843e-014 -90 -90   XYZ
    dof rx rz
    limits (-90.0 90.0)
           (-45.0 45.0)
  end
  begin
     id 29
     name rfingers
     direction -1 -4.49018e-011 6.13845e-026   
     length 0.657887   
     axis -3.91686e-014 -90 -90   XYZ
    dof rx
    limits (0.0 90.0)
  end
  begin
     id 30
     name rthumb
     direction -0.707107 -6.34872e-011 0.707107   
     length 0.944599   
     axis -90 -45 -2.85299e-015   XYZ
    dof rx rz
    limits (-45.0 45.0)
           (-45.0 45.0)
  end
:hierarchy
  begin
    root lhipjoint rhipjoint lowerback
    lhipjoint lfemur
    lfemur ltibia
    ltibia lfoot
    lfoot ltoes
    rhipjoint rfemur
    rfemur rtibia
    rtibia rfoot
    rfoot rtoes
    lowerback upperback
    upperback thorax
    thorax lowerneck lclavicle rclavicle
    lowerneck upperneck
    upperneck head
    lclavicle lhumerus
    lhumerus lradius
    lradius lwrist
    lwrist lhand lthumb
    lhand lfingers
    rclavicle rhumerus
    rhumerus rradius
    rradius rwrist
    rwrist rhand rthumb
    rhand rfingers
  end

#!OML:ASF F:\VICON\USERDATA\INSTALL\rory3\rory3.ASF
:FULLY-SPECIFIED
:DEGREES
21
root 0.472389 16.4387 33.6846 -152.858 -0.201802 -175.133
lowerback -18.0904 1.82709 4.61111
upperback -10.441 3.88432 1.28816
thorax -0.970823 2.72945 -0.601701
lowerneck -14.0331 0.607225 -1.68874
upperneck 35.5317 -2.40498 1.15266
head 14.6399 -2.28348 0.0719545
rclavicle 1.44119e-015 2.98177e-015
rhumerus -46.2425 5.41248 -82.8011
rradius 16.3621
rwrist -2.32475
rhand 22.0067 7.15302
rfingers 7.12502
rthumb 46.3997 -15.7732
lclavicle 1.44119e-015 2.98177e-015
lhumerus -52.291 6.45588 69.4225
lradius 19.4785
lwrist 0.846257
lhand 28.1942 21.6324
lfingers 7.12502
lthumb 52.0764 41.6926
rfemur -43.266 2.63947 37.263
rtibia 43.0401
rfoot -44.7923 -28.7245
rtoes 34.4429
lfemur -32.8129 28.1691 -24.5649
ltibia 61.0647
lfoot 30.5384 41.9113
ltoes 25.8818
22
root 0.478403 16.4369 33.6887 -152.621 -0.0994904 -175.068
lowerback -18.0815 1.87366 4.5942
upperback -10.6204 4.00787 1.26954
thorax -1.16652 2.80889 -0.600711
lowerneck -13.7619 0.60479 -1.62017
upperneck 35.5206 -2.4709 1.16223
head 14.5733 -2.31459 0.0538061
rclavicle -2.83392e-014 -1.72943e-014
rhumerus -46.3515 5.31646 -82.7888
rradius 16.2233
rwrist -2.23606
rhand 21.7389 7.6092
rfingers 7.12502
rthumb 46.1514 -15.422
lclavicle -2.83392e-014 -1.72943e-014
lhumerus -52.4323 6.1855 69.568
lradius 19.5152
lwrist 0.865583
lhand 28.1626 21.5711
lfingers 7.12502
lthumb 52.0477 41.6483
rfemur -43.4824 3.20769 37.1483
rtibia 43.0142
rfoot -45.2889 -28.5578
rtoes 35.2586
lfemur -33.2225 28.3503 -24.6735
ltibia 61.1534
lfoot 30.9756 41.6406
ltoes 25.2386
23
root 0.480563 16.4373 33.689 -152.479 -0.0463514 -175.051
lowerback -18.1514 1.8819 4.5561
upperback -10.6124 4.02285 1.30501
thorax -1.12589 2.82169 -0.534756
lowerneck -13.7645 0.614443 -1.60964
upperneck 35.5615 -2.43939 1.07553
head 14.5908 -2.31427 0.0202551
rclavicle -3.04762e-014 -2.34566e-014
rhumerus -46.1929 5.51092 -82.8407
rradius 16.1229
rwrist -2.30622
rhand 21.5437 7.65943
rfingers 7.12502
rthumb 45.9703 -15.4475
lclavicle -3.04762e-014 -2.34566e-014
lhumerus -52.396 6.34025 69.5699
lradius 19.4583
lwrist 0.770812
lhand 28.239 21.5741
lfingers 7.12502
lthumb 52.117 41.61
rfemur -43.5866 3.46358 37.0683
rtibia 42.9959
rfoot -45.6591 -28.2039
rtoes 36.0643
lfemur -33.4449 28.419 -24.7654
ltibia 61.1988
lfoot 30.8512 41.7546
ltoes 25.4271
24
root 0.479957 16.4324 33.6863 -152.403 -0.0531094 -174.921
lowerback -18.1865 1.93018 4.71472
upperback -10.5524 4.0456 1.33108
thorax -1.03732 2.82377 -0.586357
lowerneck -14.0372 0.601303 -1.642
upperneck 35.7341 -2.45068 1.05015
head 14.7349 -2.32657 0.00749922
rclavicle 4.38693e-014 1.07344e-014
rhumerus -45.9469 5.28416 -82.6343
rradius 15.9838
rwrist -1.96403
rhand 21.6544 7.61062
rfingers 7.12502
rthumb 46.0731 -15.4534
lclavicle 4.38693e-014 1.07344e-014
lhumerus -52.2105 6.65337 69.4135
lradius 19.2772
lwrist 0.562257
lhand 28.0637 21.5206
lfingers 7.12502
lthumb 51.958 41.6511
rfemur -43.64 3.46214 37.2122
rtibia 42.953
rfoot -45.527 -28.2203
rtoes 36.0836
lfemur -33.5663 28.4706 -24.689
ltibia 61.2359
lfoot 29.9504 42.4132
ltoes 26.4215
25
root 0.480434 16.435 33.6772 -152.406 0.111913 -174.949
lowerback -18.1251 1.98798 4.66266
upperback -10.5695 4.13054 1.27913
thorax -1.08159 2.86425 -0.601887
lowerneck -14.0732 0.583987 -1.68248
upperneck 35.8342 -2.51908 1.12546
head 14.7937 -2.35798 0.03094
rclavicle -1.14736e-014 -9.34288e-015
rhumerus -46.0663 5.41738 -82.8055
rradius 16.0919
rwrist -2.2031
rhand 21.53 7.54652
rfingers 7.12502
rthumb 45.9576 -15.5656
lclavicle -1.14736e-014 -9.34288e-015
lhumerus -52.242 6.77561 69.2593
lradius 19.1813
lwrist 0.398815
lhand 27.9623 21.2767
lfingers 7.12502
lthumb 51.866 41.4616
rfemur -43.5566 3.52871 37.1367
rtibia 42.917
rfoot -45.5674 -28.3013
rtoes 35.5115
lfemur -33.5022 28.6119 -24.818
ltibia 61.1678
lfoot 29.8161 42.4571
ltoes 26.5144
26
root 0.477432 16.4326 33.6632 -152.418 0.400708 -175.141
lowerback -18.0976 2.06932 4.46643
upperback -10.6356 4.27868 1.14542
thorax -1.15932 2.94365 -0.612524
lowerneck -13.912 0.567086 -1.68477
upperneck 35.8966 -2.61682 1.20054
head 14.7894 -2.40414 0.0444045
rclavicle 3.34952e-014 4.77083e-015
rhumerus -46.2472 5.41216 -82.9114
rradius 16.0933
rwrist -2.34707
rhand 21.5436 7.45861
rfingers 7.12502
rthumb 45.9703 -15.6483
lclavicle 3.34952e-014 4.77083e-015
lhumerus -52.3702 6.55837 69.2948
lradius 19.1849
lwrist 0.320459
lhand 27.9874 21.4582
lfingers 7.12502
lthumb 51.8887 41.6298
rfemur -43.449 3.61631 36.7672
rtibia 42.8705
rfoot -45.688 -27.9518
rtoes 36.0541
lfemur -33.3503 28.7202 -25.164
ltibia 61.0198
lfoot 30.6699 41.8813
ltoes 25.3579
27
root 0.472206 16.4321 33.6499 -152.327 0.444507 -175.009
lowerback -18.1832 2.19081 4.72684
upperback -10.6707 4.413 1.08281
thorax -1.13258 3.00438 -0.796137
lowerneck -13.8553 0.552558 -1.58934
upperneck 35.9181 -2.66549 1.15914
head 14.7858 -2.42131 0.00205996
rclavicle -2.34628e-014 -2.22639e-014
rhumerus -46.2762 5.19333 -82.8756
rradius 15.9978
rwrist -2.269
rhand 21.5382 7.48209
rfingers 7.12502
rthumb 45.9652 -15.6269
lclavicle -2.34628e-014 -2.22639e-014
lhumerus -52.4029 6.29997 69.4436
lradius 19.1739
lwrist 0.239768
lhand 27.7834 21.7574
lfingers 7.12502
lthumb 51.7035 42.0375
rfemur -43.418 3.37667 36.9367
rtibia 42.7915
rfoot -45.6169 -27.3537
rtoes 36.0941
lfemur -33.3785 28.8248 -25.1051
ltibia 60.9688
lfoot 30.516 41.9729
ltoes 25.6396
28
root 0.473392 16.4348 33.6292 -153.021 -0.273535 -175.318
lowerback -17.7503 1.99868 4.63216
upperback -10.4437 4.10186 1.02754
thorax -1.11682 2.814 -0.870743
lowerneck -13.7774 0.514298 -1.48705
upperneck 35.8577 -2.72164 1.09457
head 14.738 -2.43723 -0.0491259
rclavicle 3.95706e-015 8.54774e-015
rhumerus -46.3497 5.31324 -83.0868
rradius 16.1299
rwrist -2.73976
rhand 21.3389 7.60487
rfingers 7.12502
rthumb 45.7803 -15.5806
lclavicle 3.95706e-015 8.54774e-015
lhumerus -52.318 6.13892 69.5676
lradius 19.1396
lwrist 0.12925
lhand 27.7428 21.9048
lfingers 7.12502
lthumb 51.6666 42.2064
rfemur -42.6343 3.20645 36.7422
rtibia 42.7448
rfoot -46.4615 -27.4606
rtoes 36.7333
lfemur -32.3055 28.2378 -24.5682
ltibia 60.8198
lfoot 29.9092 42.2613
ltoes 27.042
29
root 0.474997 16.435 33.6349 -152.552 0.389847 -175.001
lowerback -17.9151 2.28098 4.73692
upperback -10.6153 4.51294 1.03307
thorax -1.1987 3.03739 -0.851644
lowerneck -13.5459 0.493559 -1.51469
upperneck 35.7974 -2.78419 1.15464
head 14.6588 -2.46644 -0.0266784
rclavicle -3.10725e-014 -1.90833e-014
rhumerus -46.4836 5.28897 -83.1002
rradius 16.2629
rwrist -2.83881
rhand 21.1469 7.6178
rfingers 7.12502
rthumb 45.602 -15.6407
lclavicle -3.10725e-014 -1.90833e-014
lhumerus -52.3848 5.84841 69.8582
lradius 19.1864
lwrist 0.346258
lhand 27.5874 21.7587
lfingers 7.12502
lthumb 51.5254 42.142
rfemur -43.0315 3.46275 36.9273
rtibia 42.6728
rfoot -45.9295 -27.654
rtoes 34.8791
lfemur -32.9393 28.751 -24.8662
ltibia 60.8279
lfoot 28.6608 43.0154
ltoes 27.9951
30
root 0.475754 16.436 33.625 -152.793 0.126903 -175.253
lowerback -17.7254 2.1835 4.54693
upperback -10.569 4.39563 0.981969
thorax -1.25374 2.97329 -0.829777
lowerneck -13.3205 0.479951 -1.49186
upperneck 35.7384 -2.84372 1.19627
head 14.581 -2.48996 -0.0202832
rclavicle 4.95719e-015 -2.5842e-015
rhumerus -46.5181 4.86179 -82.7731
rradius 16.2416
rwrist -2.25102
rhand 21.4636 7.40014
rfingers 7.12502
rthumb 45.896 -15.7376
lclavicle 4.95719e-015 -2.5842e-015
lhumerus -52.4611 5.60993 70.0276
lradius 19.2816
lwrist 0.450848
lhand 27.7373 21.537
lfingers 7.12502
lthumb 51.6616 41.8416
rfemur -42.7919 3.22257 36.7672
rtibia 42.665
rfoot -46.1736 -27.8878
rtoes 34.678
lfemur -32.5258 28.4276 -24.8266
ltibia 60.6863
lfoot 28.7401 43.0946
ltoes 28.3732
